<svg width="192" height="192" viewBox="0 0 192 192" fill="none" xmlns="http://www.w3.org/2000/svg">
<rect width="192" height="192" rx="40" fill="#0ea5e9"/>
<svg x="48" y="48" width="96" height="96" viewBox="0 0 24 24" fill="none" xmlns="http://www.w3.org/2000/svg">
<path d="M12 2C6.48 2 2 6.48 2 12S6.48 22 12 22C17.52 22 22 17.52 22 12C22 6.48 17.52 2 12 2ZM12 20C7.59 20 4 16.41 4 12C4 7.59 7.59 4 12 4C16.41 4 20 7.59 20 12C20 16.41 16.41 20 12 20Z" fill="white"/>
<path d="M12 6C10.34 6 9 7.34 9 9C9 10.66 10.34 12 12 12C13.66 12 15 10.66 15 9C15 7.34 13.66 6 12 6Z" fill="white"/>
<path d="M12 14C9.67 14 7.5 15.08 6 16.82V18H18V16.82C16.5 15.08 14.33 14 12 14Z" fill="white"/>
</svg>
</svg>
